<svg xmlns="http://www.w3.org/2000/svg" xmlns:xlink="http://www.w3.org/1999/xlink" width="500" zoomAndPan="magnify" viewBox="0 0 375 374.999991" height="500" preserveAspectRatio="xMidYMid meet" version="1.0"><defs><clipPath id="24c7c37f07"><path d="M 0 0 L 352.664062 0 L 352.664062 114.570312 L 0 114.570312 Z M 0 0 " clip-rule="nonzero"/></clipPath><clipPath id="b9ce0abe5c"><path d="M 7.5 0 L 345.027344 0 C 349.167969 0 352.527344 3.359375 352.527344 7.5 L 352.527344 107.070312 C 352.527344 111.214844 349.167969 114.570312 345.027344 114.570312 L 7.5 114.570312 C 3.359375 114.570312 0 111.214844 0 107.070312 L 0 7.5 C 0 3.359375 3.359375 0 7.5 0 Z M 7.5 0 " clip-rule="nonzero"/></clipPath><clipPath id="cf95454e11"><path d="M 0 0 L 352.558594 0 L 352.558594 114.570312 L 0 114.570312 Z M 0 0 " clip-rule="nonzero"/></clipPath><clipPath id="d4e950eda9"><path d="M 7.5 0 L 345.027344 0 C 349.167969 0 352.527344 3.359375 352.527344 7.5 L 352.527344 107.070312 C 352.527344 111.214844 349.167969 114.570312 345.027344 114.570312 L 7.5 114.570312 C 3.359375 114.570312 0 111.214844 0 107.070312 L 0 7.5 C 0 3.359375 3.359375 0 7.5 0 Z M 7.5 0 " clip-rule="nonzero"/></clipPath><clipPath id="f249d9f874"><rect x="0" width="353" y="0" height="115"/></clipPath><clipPath id="1ec099125d"><path d="M 0 130.214844 L 264.5 130.214844 L 264.5 244.785156 L 0 244.785156 Z M 0 130.214844 " clip-rule="nonzero"/></clipPath><clipPath id="873ee0cfa7"><path d="M 7.5 130.214844 L 256.894531 130.214844 C 261.035156 130.214844 264.394531 133.574219 264.394531 137.714844 L 264.394531 237.285156 C 264.394531 241.425781 261.035156 244.785156 256.894531 244.785156 L 7.5 244.785156 C 3.359375 244.785156 0 241.425781 0 237.285156 L 0 137.714844 C 0 133.574219 3.359375 130.214844 7.5 130.214844 Z M 7.5 130.214844 " clip-rule="nonzero"/></clipPath><clipPath id="83c45a13b3"><path d="M 0 0.214844 L 264.480469 0.214844 L 264.480469 114.785156 L 0 114.785156 Z M 0 0.214844 " clip-rule="nonzero"/></clipPath><clipPath id="4fad26acb8"><path d="M 7.5 0.214844 L 256.894531 0.214844 C 261.035156 0.214844 264.394531 3.574219 264.394531 7.714844 L 264.394531 107.285156 C 264.394531 111.425781 261.035156 114.785156 256.894531 114.785156 L 7.5 114.785156 C 3.359375 114.785156 0 111.425781 0 107.285156 L 0 7.714844 C 0 3.574219 3.359375 0.214844 7.5 0.214844 Z M 7.5 0.214844 " clip-rule="nonzero"/></clipPath><clipPath id="d9a48c5b35"><rect x="0" width="265" y="0" height="115"/></clipPath><clipPath id="274417ec57"><path d="M 0 260.429688 L 132.472656 260.429688 L 132.472656 375 L 0 375 Z M 0 260.429688 " clip-rule="nonzero"/></clipPath><clipPath id="ca39d0490f"><path d="M 7.5 260.429688 L 124.699219 260.429688 C 128.839844 260.429688 132.199219 263.785156 132.199219 267.929688 L 132.199219 367.5 C 132.199219 371.640625 128.839844 375 124.699219 375 L 7.5 375 C 3.359375 375 0 371.640625 0 367.5 L 0 267.929688 C 0 263.785156 3.359375 260.429688 7.5 260.429688 Z M 7.5 260.429688 " clip-rule="nonzero"/></clipPath><clipPath id="cdebc12c73"><path d="M 0 0.429688 L 132.238281 0.429688 L 132.238281 115 L 0 115 Z M 0 0.429688 " clip-rule="nonzero"/></clipPath><clipPath id="020fa25f18"><path d="M 7.5 0.429688 L 124.699219 0.429688 C 128.839844 0.429688 132.199219 3.785156 132.199219 7.929688 L 132.199219 107.5 C 132.199219 111.640625 128.839844 115 124.699219 115 L 7.5 115 C 3.359375 115 0 111.640625 0 107.5 L 0 7.929688 C 0 3.785156 3.359375 0.429688 7.5 0.429688 Z M 7.5 0.429688 " clip-rule="nonzero"/></clipPath><clipPath id="295327e951"><rect x="0" width="133" y="0" height="115"/></clipPath></defs><g clip-path="url(#24c7c37f07)"><g clip-path="url(#b9ce0abe5c)"><g transform="matrix(1, 0, 0, 1, 0, 0)"><g clip-path="url(#f249d9f874)"><g clip-path="url(#cf95454e11)"><g clip-path="url(#d4e950eda9)"><path fill="#ffffff" d="M 0 0 L 352.664062 0 L 352.664062 114.570312 L 0 114.570312 Z M 0 0 " fill-opacity="1" fill-rule="nonzero"/></g></g></g></g></g></g><g clip-path="url(#1ec099125d)"><g clip-path="url(#873ee0cfa7)"><g transform="matrix(1, 0, 0, 1, 0, 130)"><g clip-path="url(#d9a48c5b35)"><g clip-path="url(#83c45a13b3)"><g clip-path="url(#4fad26acb8)"><path fill="#ffffff" d="M 0 0.214844 L 264.5 0.214844 L 264.5 114.785156 L 0 114.785156 Z M 0 0.214844 " fill-opacity="1" fill-rule="nonzero"/></g></g></g></g></g></g><g clip-path="url(#274417ec57)"><g clip-path="url(#ca39d0490f)"><g transform="matrix(1, 0, 0, 1, 0, 260)"><g clip-path="url(#295327e951)"><g clip-path="url(#cdebc12c73)"><g clip-path="url(#020fa25f18)"><path fill="#ffffff" d="M 0 0.429688 L 132.023438 0.429688 L 132.023438 115 L 0 115 Z M 0 0.429688 " fill-opacity="1" fill-rule="nonzero"/></g></g></g></g></g></g></svg>